<?xml version="1.0" encoding="utf-8"?>
<!-- Generator: Adobe Illustrator 15.0.0, SVG Export Plug-In . SVG Version: 6.00 Build 0)  -->
<!DOCTYPE svg PUBLIC "-//W3C//DTD SVG 1.1//EN" "http://www.w3.org/Graphics/SVG/1.1/DTD/svg11.dtd">
<svg version="1.1" id="Layer_1" xmlns="http://www.w3.org/2000/svg" xmlns:xlink="http://www.w3.org/1999/xlink" x="0px" y="0px"
	 width="56px" height="22px" viewBox="0 0 56 22" enable-background="new 0 0 56 22" xml:space="preserve">
<g>
	<g>
		<path fill="#FFFFFF" d="M19.963,20.137c-1.025,0.954-2.347,1.432-3.963,1.432c-1.125,0-2.051-0.305-2.777-0.914
			c-0.727-0.608-1.09-1.393-1.09-2.354c0-2.649,2.282-3.975,6.848-3.975h0.983c0-0.812-0.042-1.4-0.128-1.769
			c-0.086-0.365-0.324-0.67-0.716-0.914c-0.392-0.241-1.015-0.362-1.87-0.362c-1.795,0-2.548,0.641-2.605,1.923h-2.008
			c0.149-2.329,1.608-3.493,4.72-3.493c1.453,0,2.585,0.288,3.397,0.865c0.812,0.576,1.218,1.709,1.218,3.396v7.328h-2.008
			L19.963,20.137L19.963,20.137z M19.963,18.32v-2.51h-1.378c-2.919,0-4.38,0.793-4.38,2.383c0,0.576,0.214,1.02,0.641,1.328
			c0.427,0.312,1.004,0.424,1.73,0.424c0.662,0,1.304-0.107,1.923-0.406C19.12,19.238,19.607,18.833,19.963,18.32z"/>
		<path fill="#FFFFFF" d="M53.992,20.137c-1.026,0.954-2.348,1.432-3.965,1.432c-1.125,0-2.051-0.305-2.777-0.914
			c-0.727-0.608-1.09-1.393-1.09-2.354c0-2.649,2.283-3.975,6.849-3.975h0.983c0-0.812-0.043-1.4-0.129-1.769
			c-0.086-0.365-0.324-0.67-0.717-0.914c-0.392-0.241-1.015-0.362-1.869-0.362c-1.795,0-2.547,0.641-2.604,1.923h-2.008
			c0.149-2.329,1.606-3.493,4.722-3.493c1.451,0,2.584,0.288,3.396,0.865C55.596,11.151,56,12.284,56,13.973v7.328h-2.008V20.137z
			 M53.992,18.32v-2.51h-1.379c-2.92,0-4.381,0.793-4.381,2.383c0,0.576,0.213,1.02,0.642,1.328
			c0.428,0.312,1.004,0.424,1.731,0.424c0.662,0,1.303-0.107,1.922-0.406C53.146,19.238,53.637,18.833,53.992,18.32z"/>
		<path fill="#FFFFFF" d="M42.639,19.943c-0.896,1.082-1.977,1.625-3.236,1.625c-1.481,0-2.629-0.527-3.44-1.582
			s-1.217-2.475-1.217-4.262c0-1.854,0.453-3.318,1.36-4.396c0.908-1.079,2.051-1.618,3.424-1.618c1.227,0,2.263,0.377,3.109,1.132
			V5.896h2.008v15.405h-2.008V19.943z M42.639,18.043v-5.385c-0.869-0.92-1.863-1.378-2.979-1.378c-0.862,0-1.552,0.373-2.067,1.117
			c-0.517,0.744-0.775,1.854-0.775,3.328c0,1.396,0.244,2.455,0.732,3.178s1.163,1.041,2.023,1.041
			C40.697,19.943,41.721,19.339,42.639,18.043z"/>
		<path fill="#FFFFFF" d="M26.009,11.28c1.004-1.133,2.133-1.57,3.388-1.57c2.557,0,3.834,1.393,3.834,4.177v7.414h-2.02v-7.328
			c0-0.927-0.165-1.592-0.496-1.998s-0.874-0.608-1.63-0.608c-1.025,0-2.05,0.629-3.076,1.839v8.098H23.99V9.966h2.019V11.28z"/>
		<polygon fill="#FFFFFF" points="11.628,21.301 7.558,15.393 11.297,9.966 8.797,9.966 6.308,13.809 3.819,9.966 1.319,9.966 
			5.059,15.393 0.988,21.301 3.488,21.301 6.308,16.997 9.128,21.301 		"/>
	</g>
	<path fill="#FFFFFF" d="M22.041,3.651c-4.916-2.186-9.57-1.649-13.403-0.38C3.514,4.97,0,8.049,0,8.049l0.181,0.263
		c0,0,5.033-3.566,11.347-4.393c2.876-0.377,6.016-0.176,9.073,1.173c4.546,2.006,8.661,1.72,12.275,0.722
		c5.729-1.582,9.767-5.12,9.767-5.12l-0.182-0.262c0,0-3.305,2.341-7.916,3.669C30.87,5.158,26.498,5.632,22.041,3.651z"/>
</g>
</svg>
