<?xml version="1.0" encoding="UTF-8"?>
<svg width="16px" height="16px" viewBox="0 0 16 16" version="1.1" xmlns="http://www.w3.org/2000/svg" xmlns:xlink="http://www.w3.org/1999/xlink">
    <!-- Generator: sketchtool 63 (101010) - https://sketch.com -->
    <title>1A78D3FD-6DC1-4C95-A82C-E3DD16DBFB3E@3x</title>
    <desc>Created with sketchtool.</desc>
    <g id="Home" stroke="none" stroke-width="1" fill="none" fill-rule="evenodd">
        <g id="WD_Homepage_04" transform="translate(-1257.000000, -9.000000)" fill="#DEDEDE">
            <g id="Asset/Icon/Phone/Primary" transform="translate(1257.000000, 9.000000)">
                <path d="M3.21777778,6.92444444 C4.49777778,9.44 6.56,11.4933333 9.07555556,12.7822222 L11.0311111,10.8266667 C11.2711111,10.5866667 11.6266667,10.5066667 11.9377778,10.6133333 C12.9333333,10.9422222 14.0088889,11.12 15.1111111,11.12 C15.6,11.12 16,11.52 16,12.0088889 L16,15.1111111 C16,15.6 15.6,16 15.1111111,16 C6.76444444,16 0,9.23555556 0,0.888888889 C0,0.4 0.4,0 0.888888889,0 L4,0 C4.48888889,0 4.88888889,0.4 4.88888889,0.888888889 C4.88888889,2 5.06666667,3.06666667 5.39555556,4.06222222 C5.49333333,4.37333333 5.42222222,4.72 5.17333333,4.96888889 L3.21777778,6.92444444 Z" id="Shape"></path>
            </g>
        </g>
    </g>
</svg>