<?xml version="1.0" encoding="UTF-8"?>
<svg width="16px" height="10px" viewBox="0 0 16 10" version="1.1" xmlns="http://www.w3.org/2000/svg" xmlns:xlink="http://www.w3.org/1999/xlink">
    <!-- Generator: sketchtool 63 (101010) - https://sketch.com -->
    <title>F86CD21C-1F59-4420-AA19-C7369367FE9C@3x</title>
    <desc>Created with sketchtool.</desc>
    <g id="Home" stroke="none" stroke-width="1" fill="none" fill-rule="evenodd">
        <g id="WD_Homepage_04" transform="translate(-850.000000, -4325.000000)" fill="#297013">
            <g id="Group-[15v-l]" transform="translate(745.000000, 4013.000000)">
                <g id="Social-[5h]" transform="translate(0.000000, 302.000000)">
                    <g id="Email" transform="translate(99.000000, 0.000000)">
                        <g id="Icon/24px" transform="translate(6.000000, 7.000000)">
                            <g id="Asset/Icon/Chevron_Right/Black">
                                <path d="M0.730754353,3.79613764 C0.573065255,3.71537005 0.307686043,3.57306526 0.24999491,3.40383793 C0.149996946,3.11538227 0.257687061,3 0.684601446,3 L15.3919943,3 C15.8189087,3 15.9265988,3.11153619 15.8266008,3.40383793 C15.7689097,3.56921918 15.5035305,3.71537005 15.3458414,3.79613764 C14.9227731,4.01921002 9.04596967,7.22299094 8.82674336,7.33837321 C8.60751706,7.45375548 8.38444468,7.50760053 8.03829788,7.50760053 C7.69215108,7.50760053 7.4690787,7.45375548 7.24985239,7.33837321 C7.03062609,7.22299094 1.15382266,4.01921002 0.730754353,3.79613764 Z M15.68045,3.96921104 C16.0227507,3.79613764 15.9996742,3.99613356 15.9996742,4.15766874 L15.9996742,12.0421236 C15.9996742,12.3959625 15.5496834,12.8459534 15.172768,12.8459534 L0.903827752,12.8459534 C0.526912349,12.8459534 0,12.3998086 0,12.0421236 L0,4.15766874 C0,3.99997964 0.0192303777,3.79613764 0.357685025,3.96921104 C0.67306322,4.13074621 3.53454342,6.14608979 5.40758221,7.35760359 L2.24995419,10.9152235 C2.17303268,10.992145 2.138418,11.0882969 2.18457091,11.1306037 C2.23072381,11.1767566 2.33456785,11.1536801 2.41148936,11.0767586 L6.20371985,7.87682378 C6.7767851,8.24604704 7.17677696,8.49988802 7.24985239,8.53834878 C7.54600021,8.68834572 7.75368829,8.7075761 8.03829788,8.7075761 C8.32290747,8.7075761 8.53059555,8.68834572 8.82674336,8.53834878 C8.89597272,8.49988802 9.29981066,8.24604704 9.87287591,7.87682378 L13.6651064,11.0767586 C13.745874,11.1498341 13.8458719,11.1729105 13.8920249,11.1306037 C13.9343317,11.0844508 13.899717,10.992145 13.8227955,10.9152235 L10.6613214,7.35760359 C12.5343602,6.14608979 15.3650718,4.13074621 15.68045,3.96921104 Z" id="Combined-Shape"></path>
                            </g>
                        </g>
                    </g>
                </g>
            </g>
        </g>
    </g>
</svg>