<?xml version="1.0" encoding="UTF-8"?>
<svg width="16px" height="16px" viewBox="0 0 16 16" version="1.1" xmlns="http://www.w3.org/2000/svg" xmlns:xlink="http://www.w3.org/1999/xlink">
    <!-- Generator: sketchtool 63 (101010) - https://sketch.com -->
    <title>CF299F82-4ECE-4FE5-99DF-388D52192EBF@3x</title>
    <desc>Created with sketchtool.</desc>
    <g id="Home" stroke="none" stroke-width="1" fill="none" fill-rule="evenodd">
        <g id="WD_Homepage_04" transform="translate(-751.000000, -4322.000000)" fill="#297013">
            <g id="Group-[15v-l]" transform="translate(745.000000, 4013.000000)">
                <g id="Social-[5h]" transform="translate(0.000000, 302.000000)">
                    <g id="Instagram">
                        <g id="Icon/24px" transform="translate(6.000000, 7.000000)">
                            <g id="Asset/Icon/Chevron_Right/Black">
                                <path d="M8.000016,0 C5.82733033,0 5.55489533,0.00920933333 4.70161033,0.0481423333 C3.85010367,0.0869796667 3.268555,0.222229 2.759696,0.420005667 C2.23362533,0.624419333 1.78748467,0.897965667 1.34270933,1.34270933 C0.897965667,1.78748467 0.624419333,2.23362533 0.420005667,2.759696 C0.222229,3.268555 0.0869796667,3.85010367 0.0481423333,4.70161033 C0.00920933333,5.55489533 0,5.82733033 0,8.000016 C0,10.1726697 0.00920933333,10.4451047 0.0481423333,11.2983897 C0.0869796667,12.1498963 0.222229,12.731445 0.420005667,13.240304 C0.624419333,13.7663747 0.897965667,14.2125153 1.34270933,14.6572907 C1.78748467,15.1020343 2.23362533,15.3755807 2.759696,15.5800263 C3.268555,15.777771 3.85010367,15.9130203 4.70161033,15.9518577 C5.55489533,15.9907907 5.82733033,16 8.000016,16 C10.1726697,16 10.4451047,15.9907907 11.2983897,15.9518577 C12.1498963,15.9130203 12.731445,15.777771 13.240304,15.5800263 C13.7663747,15.3755807 14.2125153,15.1020343 14.6572907,14.6572907 C15.1020343,14.2125153 15.3755807,13.7663747 15.5800263,13.240304 C15.777771,12.731445 15.9130203,12.1498963 15.9518577,11.2983897 C15.9907907,10.4451047 16,10.1726697 16,8.000016 C16,5.82733033 15.9907907,5.55489533 15.9518577,4.70161033 C15.9130203,3.85010367 15.777771,3.268555 15.5800263,2.759696 C15.3755807,2.23362533 15.1020343,1.78748467 14.6572907,1.34270933 C14.2125153,0.897965667 13.7663747,0.624419333 13.240304,0.420005667 C12.731445,0.222229 12.1498963,0.0869796667 11.2983897,0.0481423333 C10.4451047,0.00920933333 10.1726697,0 8.000016,0 Z M8.000016,1.441439 C10.1360867,1.441439 10.3891187,1.44960033 11.2326867,1.48808867 C12.0126787,1.52365533 12.4362727,1.653982 12.718171,1.76354033 C13.0915903,1.90866567 13.3580873,2.082022 13.6380167,2.36198333 C13.917978,2.64191267 14.0913343,2.90840967 14.2364597,3.281829 C14.346018,3.56372733 14.4763447,3.98732133 14.5119113,4.76731333 C14.5503997,5.61088133 14.558561,5.86391333 14.558561,8.000016 C14.558561,10.1360867 14.5503997,10.3891187 14.5119113,11.2326867 C14.4763447,12.0126787 14.346018,12.4362727 14.2364597,12.718171 C14.0913343,13.0915903 13.917978,13.3580873 13.6380167,13.6380167 C13.3580873,13.917978 13.0915903,14.0913343 12.718171,14.2364597 C12.4362727,14.346018 12.0126787,14.4763447 11.2326867,14.5119113 C10.3892457,14.5503997 10.1362453,14.558561 8.000016,14.558561 C5.86375467,14.558561 5.610786,14.5503997 4.76731333,14.5119113 C3.98732133,14.4763447 3.56372733,14.346018 3.281829,14.2364597 C2.90840967,14.0913343 2.64191267,13.917978 2.36198333,13.6380167 C2.08205367,13.3580873 1.90866567,13.0915903 1.76354033,12.718171 C1.653982,12.4362727 1.52365533,12.0126787 1.48808867,11.2326867 C1.44960033,10.3891187 1.441439,10.1360867 1.441439,8.000016 C1.441439,5.86391333 1.44960033,5.61088133 1.48808867,4.76731333 C1.52365533,3.98732133 1.653982,3.56372733 1.76354033,3.281829 C1.90866567,2.90840967 2.082022,2.64191267 2.36198333,2.36198333 C2.64191267,2.082022 2.90840967,1.90866567 3.281829,1.76354033 C3.56372733,1.653982 3.98732133,1.52365533 4.76731333,1.48808867 C5.61088133,1.44960033 5.86391333,1.441439 8.000016,1.441439 Z M8.000016,3.89189433 C5.73114133,3.89189433 3.89189433,5.73114133 3.89189433,8.000016 C3.89189433,10.2688587 5.73114133,12.1081057 8.000016,12.1081057 C10.2688587,12.1081057 12.1081057,10.2688587 12.1081057,8.000016 C12.1081057,5.73114133 10.2688587,3.89189433 8.000016,3.89189433 Z M8.000016,10.6666667 C6.52723367,10.6666667 5.33333333,9.47276633 5.33333333,8.000016 C5.33333333,6.52723367 6.52723367,5.33333333 8.000016,5.33333333 C9.47276633,5.33333333 10.6666667,6.52723367 10.6666667,8.000016 C10.6666667,9.47276633 9.47276633,10.6666667 8.000016,10.6666667 Z M13.230428,3.72958933 C13.230428,4.25978833 12.8006097,4.68957467 12.2704107,4.68957467 C11.7402433,4.68957467 11.3104253,4.25978833 11.3104253,3.72958933 C11.3104253,3.19939033 11.7402433,2.769572 12.2704107,2.769572 C12.8006097,2.769572 13.230428,3.19939033 13.230428,3.72958933 Z" id="Instagram"></path>
                            </g>
                        </g>
                    </g>
                </g>
            </g>
        </g>
    </g>
</svg>