<?xml version="1.0" encoding="UTF-8"?>
<svg width="16px" height="16px" viewBox="0 0 16 16" version="1.1" xmlns="http://www.w3.org/2000/svg" xmlns:xlink="http://www.w3.org/1999/xlink">
    <!-- Generator: sketchtool 63 (101010) - https://sketch.com -->
    <title>0EC624A1-9468-444F-981B-B9EA7DAC1EFF@3x</title>
    <desc>Created with sketchtool.</desc>
    <g id="Home" stroke="none" stroke-width="1" fill="none" fill-rule="evenodd">
        <g id="WD_Homepage_04" transform="translate(-1594.000000, -77.000000)" fill="#297013">
            <g id="Asset/Icon/Search/Primary" transform="translate(1594.000000, 77.000000)">
                <path d="M11.3962083,10.0571667 L10.667,10.0571667 L10.3932083,9.82858333 C11.2595,8.77725 11.806625,7.45133333 11.806625,5.942875 C11.8065833,2.65133333 9.16233333,0 5.880625,0 C2.64383333,0 0,2.65133333 0,5.942875 C0,9.23441667 2.64383333,11.8857083 5.92604167,11.8857083 C7.38483333,11.8857083 8.75233333,11.3370833 9.80066667,10.4687083 L10.0740417,10.6973333 L10.0740417,11.428625 L14.6325,16 L16,14.6285833 L11.3962083,10.0571667 Z M5.92604167,10.0571667 C3.64679167,10.0571667 1.82341667,8.22854167 1.82341667,5.942875 C1.82341667,3.657125 3.64679167,1.828625 5.92604167,1.828625 C8.20520833,1.828625 10.028625,3.657125 10.028625,5.942875 C10.028625,8.22854167 8.20520833,10.0571667 5.92604167,10.0571667 Z" id="Shape"></path>
            </g>
        </g>
    </g>
</svg>