<?xml version="1.0" encoding="UTF-8"?>
<svg width="16px" height="14px" viewBox="0 0 16 14" version="1.1" xmlns="http://www.w3.org/2000/svg" xmlns:xlink="http://www.w3.org/1999/xlink">
    <!-- Generator: sketchtool 63 (101010) - https://sketch.com -->
    <title>097BB0A9-44E9-486D-8302-EBB948E5494B@3x</title>
    <desc>Created with sketchtool.</desc>
    <g id="Home" stroke="none" stroke-width="1" fill="none" fill-rule="evenodd">
        <g id="WD_Homepage_04" transform="translate(-784.000000, -4323.000000)" fill="#297013">
            <g id="Group-[15v-l]" transform="translate(745.000000, 4013.000000)">
                <g id="Social-[5h]" transform="translate(0.000000, 302.000000)">
                    <g id="Twitter" transform="translate(33.000000, 0.000000)">
                        <g id="Icon/24px" transform="translate(6.000000, 7.000000)">
                            <g id="Asset/Icon/Chevron_Right/Black">
                                <path d="M16,2.911761 C15.412103,3.17948733 14.7791277,3.36053933 14.115161,3.441435 C14.7932147,3.02540033 15.313494,2.36571567 15.5586077,1.57987233 C14.9237543,1.96508967 14.2222223,2.24533533 13.4727947,2.39557 C12.8755063,1.74166367 12.0218347,1.33333333 11.0770677,1.33333333 C9.265481,1.33333333 7.79573867,2.840496 7.79573867,4.69916933 C7.79573867,4.96304333 7.82391267,5.21921267 7.88026067,5.46575167 C5.15208067,5.32514733 2.73381467,3.98651733 1.113811,1.947755 C0.831132333,2.44661133 0.669601333,3.02540033 0.669601333,3.641748 C0.669601333,4.80895633 1.24904633,5.83941267 2.12995233,6.44324067 C1.59276867,6.426869 1.085637,6.273745 0.642366667,6.02335367 L0.642366667,6.06476467 C0.642366667,7.69616 1.77402133,9.05694 3.27663333,9.36511367 C3.00146733,9.44408333 2.71127533,9.483568 2.41169233,9.483568 C2.20038733,9.483568 1.99377833,9.46334433 1.793743,9.42385933 C2.211657,10.7605633 3.423138,11.7342 4.86001067,11.7602023 C3.736808,12.6635367 2.32059633,13.201878 0.783236333,13.201878 C0.518401,13.201878 0.256383,13.1864693 0,13.155652 C1.452838,14.1090647 3.17896333,14.6666667 5.03187167,14.6666667 C11.0704937,14.6666667 14.3715443,9.53846167 14.3715443,5.090165 C14.3715443,4.94378233 14.368727,4.79739967 14.363092,4.65390633 C15.0045197,4.179126 15.561425,3.58685433 16,2.911761" id="Twitter"></path>
                            </g>
                        </g>
                    </g>
                </g>
            </g>
        </g>
    </g>
</svg>